<svg xmlns="http://www.w3.org/2000/svg"><symbol id="bookmarks" viewBox="0 0 14 16"><path d="M12.31 0c.162 0 .317.032.465.095.232.092.417.236.555.434.137.197.206.416.206.655v13.632c0 .24-.069.458-.206.655a1.192 1.192 0 0 1-.555.434 1.19 1.19 0 0 1-.466.084c-.338 0-.63-.112-.877-.338l-4.664-4.484-4.664 4.484a1.26 1.26 0 0 1-.877.349 1.18 1.18 0 0 1-.466-.095 1.192 1.192 0 0 1-.555-.434A1.122 1.122 0 0 1 0 14.816V1.184C0 .944.069.726.206.53.344.33.53.187.761.095A1.17 1.17 0 0 1 1.227 0h11.082z"/></symbol><symbol id="movies" viewBox="0 0 16 16"><path fill-rule="evenodd" d="M13.564 0H2.436A2.436 2.436 0 0 0 0 2.436v11.128A2.436 2.436 0 0 0 2.436 16h11.128A2.435 2.435 0 0 0 16 13.564V2.436A2.435 2.435 0 0 0 13.564 0zM3.2 7.2H1.6V5.6h1.6v1.6zm0 1.6H1.6v1.6h1.6V8.8zm11.2-1.6h-1.6V5.6h1.6v1.6zm0 1.6h-1.6v1.6h1.6V8.8zm0-6.608V3.2h-1.6V1.6h1.008a.592.592 0 0 1 .592.592zM3.2 1.6H2.192a.592.592 0 0 0-.592.592V3.2h1.6V1.6zM1.6 13.808V12.8h1.6v1.6H2.192a.592.592 0 0 1-.592-.592zm11.2.592h1.008a.592.592 0 0 0 .592-.592V12.8h-1.6v1.6z" clip-rule="evenodd"/></symbol><symbol id="all" viewBox="0 0 16 16"><path fill-rule="evenodd" d="M.8 0h5.6c.48 0 .8.32.8.8v5.6c0 .48-.32.8-.8.8H.8c-.48 0-.8-.32-.8-.8V.8C0 .32.32 0 .8 0zm0 8.8h5.6c.48 0 .8.32.8.8v5.6c0 .48-.32.8-.8.8H.8c-.48 0-.8-.32-.8-.8V9.6c0-.48.32-.8.8-.8zM15.2 0H9.6c-.48 0-.8.32-.8.8v5.6c0 .48.32.8.8.8h5.6c.48 0 .8-.32.8-.8V.8c0-.48-.32-.8-.8-.8zM9.6 8.8h5.6c.48 0 .8.32.8.8v5.6c0 .48-.32.8-.8.8H9.6c-.48 0-.8-.32-.8-.8V9.6c0-.48.32-.8.8-.8z" clip-rule="evenodd"/></symbol><symbol id="series" viewBox="0 0 16 16"><path fill-rule="evenodd" d="M7.264 3.585H16V16H0V3.585h3.936L1.776.962 3.024.023 5.6 3.127 8.176 0l1.248.962-2.16 2.623zM1.6 14.448h8V5.137h-8v9.311zm12-3.104H12V9.792h1.6v1.552zM12 8.241h1.6V6.689H12V8.24z" clip-rule="evenodd"/></symbol>
<symbol id="search" viewBox="0 0 24 24"><path d="M0 0h24v24H0z" opacity=".01"/><path fill="#fff" fill-rule="evenodd" d="M17.31 15.9l3.4 3.39a1 1 0 0 1 0 1.42 1 1 0 0 1-1.42 0l-3.39-3.4A7.92 7.92 0 0 1 11 19a8 8 0 1 1 8-8 7.92 7.92 0 0 1-1.69 4.9zM11 5a6 6 0 1 0 0 12 6 6 0 0 0 0-12z" clip-rule="evenodd"/></symbol>
<symbol id="active-bookmark" viewBox="0 0 12 14"><path fill="#fff" d="M10.61 0c.14 0 .273.028.4.083a1.03 1.03 0 0 1 .657.953v11.928a1.03 1.03 0 0 1-.656.953c-.116.05-.25.074-.402.074-.291 0-.543-.099-.756-.296L5.833 9.77l-4.02 3.924c-.218.203-.47.305-.756.305a.995.995 0 0 1-.4-.083A1.03 1.03 0 0 1 0 12.964V1.036A1.03 1.03 0 0 1 .656.083.995.995 0 0 1 1.057 0h9.552z"/></symbol>
<symbol id="unactive-bookmark" viewBox="0 0 12 14"><path stroke="#fff" stroke-width="1.5" d="M1.058.75h9.551c.038 0 .07.007.102.021l.01.004.01.004a.283.283 0 0 1 .14.108.244.244 0 0 1 .046.15v11.927a.244.244 0 0 1-.047.15.283.283 0 0 1-.139.107l-.007.003-.008.003a.29.29 0 0 1-.107.014.327.327 0 0 1-.191-.053l-.055-.043-4.006-3.91-.524-.511-.523.51-4.007 3.912a.33.33 0 0 1-.245.104.248.248 0 0 1-.103-.021l-.01-.004-.01-.004-.082-.047a.272.272 0 0 1-.057-.06.244.244 0 0 1-.046-.15V1.036c0-.058.013-.102.046-.15A.282.282 0 0 1 .935.78l.01-.004.01-.004A.249.249 0 0 1 1.058.75z"/></symbol>
</svg>
